<svg width="22" height="17" viewBox="0 0 22 17" fill="none" xmlns="http://www.w3.org/2000/svg">
<path d="M19.25 5.34766C17.918 5.34766 17.1875 6.63672 17.4883 7.625L14.2227 10.8906C13.9648 10.8047 13.5352 10.8047 13.2773 10.8906L10.957 8.57031C11.2578 7.58203 10.4844 6.25 9.15234 6.25C7.82031 6.25 7.08984 7.58203 7.39062 8.57031L3.22266 12.7383C2.23438 12.4375 0.902344 13.168 0.902344 14.5C0.902344 15.4883 1.76172 16.3477 2.75 16.3477C4.08203 16.3477 4.8125 15.0156 4.51172 14.0273L8.67969 9.85938C8.98047 9.94531 9.36719 9.94531 9.625 9.85938L11.9883 12.1797C11.6875 13.168 12.418 14.5 13.75 14.5C15.082 14.5 15.8125 13.168 15.5117 12.1797L18.7773 8.95703C19.7656 9.25781 21.0977 8.48438 21.0977 7.15234C21.0977 6.16406 20.2383 5.34766 19.25 5.34766ZM13.75 6.25L14.6094 4.35938L16.5 3.5L14.6094 2.64062L13.75 0.75L12.8906 2.64062L11 3.5L12.8906 4.35938L13.75 6.25ZM3.22266 8.09766L3.65234 6.25L5.5 5.77734L3.65234 5.34766L3.22266 3.5L2.75 5.34766L0.902344 5.77734L2.75 6.25L3.22266 8.09766Z" fill="#747A80"/>
</svg>
