<svg width="16" height="4" viewBox="0 0 16 4" fill="none" xmlns="http://www.w3.org/2000/svg">
<path d="M2.5 0.152344C1.51172 0.152344 0.652344 1.01172 0.652344 2C0.652344 2.98828 1.51172 3.84766 2.5 3.84766C3.48828 3.84766 4.34766 2.98828 4.34766 2C4.34766 1.01172 3.48828 0.152344 2.5 0.152344ZM13.5 0.152344C12.5117 0.152344 11.6523 1.01172 11.6523 2C11.6523 2.98828 12.5117 3.84766 13.5 3.84766C14.4883 3.84766 15.3477 2.98828 15.3477 2C15.3477 1.01172 14.4883 0.152344 13.5 0.152344ZM8 0.152344C7.01172 0.152344 6.15234 1.01172 6.15234 2C6.15234 2.98828 7.01172 3.84766 8 3.84766C8.98828 3.84766 9.84766 2.98828 9.84766 2C9.84766 1.01172 8.98828 0.152344 8 0.152344Z" fill="#747A80"/>
</svg>
