<svg width="46" height="46" viewBox="0 0 46 46" fill="none" xmlns="http://www.w3.org/2000/svg">
<rect x="0.5" y="0.5" width="45" height="45" rx="7.5" stroke="#CFDBD5" stroke-opacity="0.7" stroke-linecap="square"/>
<path d="M21.4883 16.9883C24.793 16.9883 27.5 19.6953 27.5 23C27.5 26.3047 24.793 29.0117 21.4883 29.0117C21.2422 29.0117 20.9961 28.9766 20.75 28.9414C22.1914 27.3242 23 25.2148 23 23C23 20.7852 22.1914 18.6758 20.75 17.0586C20.9961 17.0234 21.2422 16.9883 21.4883 16.9883ZM21.4883 15.5117C20.1523 15.5117 18.8516 15.8633 17.7617 16.4961C19.9766 17.7969 21.4883 20.2227 21.4883 23C21.4883 25.7773 19.9766 28.2031 17.7617 29.5039C18.8516 30.1367 20.1523 30.4883 21.4883 30.4883C25.6367 30.4883 29.0117 27.1484 29.0117 23C29.0117 18.8516 25.6367 15.5117 21.4883 15.5117Z" fill="black"/>
</svg>
