<svg width="40" height="40" viewBox="0 0 40 40" fill="none" xmlns="http://www.w3.org/2000/svg">
<rect x="0.5" y="0.5" width="39" height="39" rx="7.5" stroke="#CFDBD5" stroke-opacity="0.7" stroke-linecap="square"/>
<path d="M20 27.4883C20.8086 27.4883 21.5117 26.8203 21.5117 26.0117H18.4883C18.4883 26.8203 19.1914 27.4883 20 27.4883ZM24.5 22.9883V19.2617C24.5 16.9414 23.2695 15.0078 21.125 14.5156V13.9883C21.125 13.3906 20.6328 12.8633 20 12.8633C19.3672 12.8633 18.875 13.3906 18.875 13.9883V14.5156C16.7305 15.0078 15.5 16.9414 15.5 19.2617V22.9883L13.9883 24.5V25.2383H26.0117V24.5L24.5 22.9883ZM22.9883 23.7617H17.0117V19.2617C17.0117 17.3984 18.1367 15.8867 20 15.8867C21.8633 15.8867 22.9883 17.3984 22.9883 19.2617V23.7617Z" fill="black"/>
</svg>
