<svg width="16" height="16" viewBox="0 0 16 16" fill="none" xmlns="http://www.w3.org/2000/svg">
<path d="M10.9297 9.67969H10.2656L10.0312 9.44531C10.8516 8.50781 11.3203 7.25781 11.3203 5.92969C11.3203 2.92188 8.89844 0.5 5.92969 0.5C2.92188 0.5 0.5 2.92188 0.5 5.92969C0.5 8.89844 2.92188 11.3203 5.92969 11.3203C7.25781 11.3203 8.50781 10.8516 9.44531 10.0312L9.67969 10.2656V10.9297L13.8203 15.0703L15.0703 13.8203L10.9297 9.67969ZM5.92969 9.67969C3.85938 9.67969 2.17969 8 2.17969 5.92969C2.17969 3.85938 3.85938 2.17969 5.92969 2.17969C8 2.17969 9.67969 3.85938 9.67969 5.92969C9.67969 8 8 9.67969 5.92969 9.67969Z" fill="black"/>
</svg>
